# xmcd
#
# Track frame offsets:
# 150
# 20360
# 41924
# 64067
# 86737
# 104006
# 121220
# 139343
# 158175
# 172087
# 188852
# 206284
# 222117
# 238782
#
# Disc length: 3433 seconds
#
# Revision: 0
# Processed by: cddbd v1.5.2PL0 Copyright (c) Steve Scherf et al.
# Submitted via: Audion 3.0.2 (http://www.panic.com/audion/)
#
DISCID=cd0d670e
DTITLE=Alanis Morissette - The Collection
DYEAR=1900
DGENRE=
TTITLE0=head over feet
TTITLE1=all i really want
TTITLE2=wake up
TTITLE3=forgiven
TTITLE4=ironic
TTITLE5=not the doctor
TTITLE6=you learn
TTITLE7=you oughta know
TTITLE8=your house
TTITLE9=hand in my pocket
TTITLE10=hands clean
TTITLE11=everything
TTITLE12=crazy
TTITLE13=my humps (Black Eyed Peas Cover)
EXTD=
EXTT0=
EXTT1=
EXTT2=
EXTT3=
EXTT4=
EXTT5=
EXTT6=
EXTT7=
EXTT8=
EXTT9=
EXTT10=
EXTT11=
EXTT12=
EXTT13=
PLAYORDER=
